<?xml version="1.0" encoding="utf-8"?>
<!-- Generator: Adobe Illustrator 19.2.0, SVG Export Plug-In . SVG Version: 6.00 Build 0)  -->
<svg version="1.1" id="Layer_1" xmlns="http://www.w3.org/2000/svg" xmlns:xlink="http://www.w3.org/1999/xlink" x="0px" y="0px"
	 viewBox="0 0 100 100" style="enable-background:new 0 0 100 100;" xml:space="preserve">
<style type="text/css">
	.st0{fill:#FFFFFF;}
	.st1{stroke:#000000;stroke-miterlimit:10;}
	.st2{fill:none;stroke:#000000;stroke-width:3;stroke-miterlimit:10;}
</style>
<circle class="st0" cx="50" cy="50" r="50"/>
<path d="M59.1,59.2H37.7c-0.5,0-0.9-0.4-0.9-0.9V41.7c0-0.5,0.4-0.9,0.9-0.9h21.4c0.5,0,0.9,0.4,0.9,0.9v16.6
	C60,58.8,59.6,59.2,59.1,59.2z"/>
<path class="st1" d="M38.7,48.1l23.1-19.6c1-0.8,2.2,0.2,2.2,1.9v39.3c0,1.7-1.2,2.7-2.2,1.9L38.7,51.9C37.7,51,37.7,49,38.7,48.1z"
	/>
<path class="st2" d="M73.1,36.3c7.9,8,7.9,20.8,0,28.7"/>
<path class="st2" d="M67.8,42.1c4.7,4.7,4.7,12.4,0,17.1"/>
</svg>
